<?xml version="1.0" ?><svg fill="none" height="24" viewBox="0 0 24 24" width="24" xmlns="http://www.w3.org/2000/svg"><path clip-rule="evenodd" d="M15.2929 5.12132C15.6834 4.7308 16.3166 4.7308 16.7071 5.12132L18.8787 7.29289C19.2692 7.68342 19.2692 8.31658 18.8787 8.70711L17 10.5858L13.4142 7L15.2929 5.12132ZM12 8.41421L4.29289 16.1213C4.10536 16.3089 4 16.5632 4 16.8284V20H7.17157C7.43679 20 7.69114 19.8946 7.87868 19.7071L15.5858 12L12 8.41421ZM18.1213 3.70711C16.9497 2.53553 15.0502 2.53554 13.8787 3.70711L2.87868 14.7071C2.31607 15.2697 2 16.0328 2 16.8284V20C2 21.1046 2.89543 22 4 22H7.17157C7.96722 22 8.73028 21.6839 9.29289 21.1213L20.2929 10.1213C21.4645 8.94975 21.4645 7.05025 20.2929 5.87868L18.1213 3.70711Z" fill="#222222" fill-rule="evenodd"/></svg>