<?xml version="1.0" ?><svg fill="none" height="24" viewBox="0 0 24 24" width="24" xmlns="http://www.w3.org/2000/svg"><path clip-rule="evenodd" d="M2 5C2 3.34315 3.34315 2 5 2H19C20.6569 2 22 3.34315 22 5V19C22 20.6569 20.6569 22 19 22H5C3.34315 22 2 20.6569 2 19V5ZM5 4C4.44772 4 4 4.44772 4 5V16.5858L6.58579 14C7.36684 13.219 8.63317 13.219 9.41421 14L10 14.5858L14.5858 10C15.3668 9.21895 16.6332 9.21895 17.4142 10L20 12.5858V5C20 4.44772 19.5523 4 19 4H5ZM20 15.4142L16 11.4142L10.7071 16.7071L10 17.4142L9.29289 16.7071L8 15.4142L4.0633 19.3509C4.20542 19.7301 4.57119 20 5 20H19C19.5523 20 20 19.5523 20 19V15.4142ZM9.5 8C9.22386 8 9 8.22386 9 8.5C9 8.77614 9.22386 9 9.5 9C9.77614 9 10 8.77614 10 8.5C10 8.22386 9.77614 8 9.5 8ZM7 8.5C7 7.11929 8.11929 6 9.5 6C10.8807 6 12 7.11929 12 8.5C12 9.88071 10.8807 11 9.5 11C8.11929 11 7 9.88071 7 8.5Z" fill="#222222" fill-rule="evenodd"/></svg>