<?xml version="1.0" ?><svg fill="none" height="24" viewBox="0 0 24 24" width="24" xmlns="http://www.w3.org/2000/svg"><path clip-rule="evenodd" d="M18 2H17C16.4477 2 16 2.44772 16 3C16 3.55228 16.4477 4 17 4H18C18.5523 4 19 3.55228 19 3C19 2.44772 18.5523 2 18 2ZM2 8C2 6.34315 3.34315 5 5 5H19C20.6569 5 22 6.34315 22 8V10V19C22 20.6569 20.6569 22 19 22H5C3.34315 22 2 20.6569 2 19V10V8ZM5 7C4.44772 7 4 7.44772 4 8V9H20V8C20 7.44772 19.5523 7 19 7H5ZM20 11H4V19C4 19.5523 4.44772 20 5 20H19C19.5523 20 20 19.5523 20 19V11ZM8 16H7C6.44772 16 6 16.4477 6 17C6 17.5523 6.44772 18 7 18H8C8.55229 18 9 17.5523 9 17C9 16.4477 8.55229 16 8 16ZM16 16H17C17.5523 16 18 16.4477 18 17C18 17.5523 17.5523 18 17 18H16C15.4477 18 15 17.5523 15 17C15 16.4477 15.4477 16 16 16ZM12.5 16H11.5C10.9477 16 10.5 16.4477 10.5 17C10.5 17.5523 10.9477 18 11.5 18H12.5C13.0523 18 13.5 17.5523 13.5 17C13.5 16.4477 13.0523 16 12.5 16ZM7 13H8C8.55229 13 9 13.4477 9 14C9 14.5523 8.55229 15 8 15H7C6.44772 15 6 14.5523 6 14C6 13.4477 6.44772 13 7 13ZM17 13H16C15.4477 13 15 13.4477 15 14C15 14.5523 15.4477 15 16 15H17C17.5523 15 18 14.5523 18 14C18 13.4477 17.5523 13 17 13ZM11.5 13H12.5C13.0523 13 13.5 13.4477 13.5 14C13.5 14.5523 13.0523 15 12.5 15H11.5C10.9477 15 10.5 14.5523 10.5 14C10.5 13.4477 10.9477 13 11.5 13ZM6 2H7C7.55229 2 8 2.44772 8 3C8 3.55228 7.55229 4 7 4H6C5.44772 4 5 3.55228 5 3C5 2.44772 5.44772 2 6 2Z" fill="#222222" fill-rule="evenodd"/></svg>