<?xml version="1.0" ?><svg fill="none" height="24" viewBox="0 0 24 24" width="24" xmlns="http://www.w3.org/2000/svg"><path clip-rule="evenodd" d="M6 11C6 7.13401 9.13401 4 13 4C16.866 4 20 7.13401 20 11C20 14.866 16.866 18 13 18C9.13401 18 6 14.866 6 11ZM13 2C8.02944 2 4 6.02944 4 11C4 13.125 4.73647 15.078 5.9681 16.6177L2.29289 20.2929C1.90237 20.6834 1.90237 21.3166 2.29289 21.7071C2.68342 22.0976 3.31658 22.0976 3.70711 21.7071L7.38231 18.0319C8.92198 19.2635 10.875 20 13 20C17.9706 20 22 15.9706 22 11C22 6.02944 17.9706 2 13 2Z" fill="#222222" fill-rule="evenodd"/></svg>